<svg xmlns="http://www.w3.org/2000/svg" xmlns:xlink="http://www.w3.org/1999/xlink" viewBox="0 0 1200 314" width="1200" height="314" role="img" aria-label="currently thinking about: agent orchestration at scale; retrieval quality over model size; observability for nondeterministic systems; not yaml">
  <defs>
    <linearGradient id="frame" x1="0" y1="0" x2="1" y2="1">
      <stop offset="0" stop-color="#7AA2F7" stop-opacity="0.45"/><stop offset="0.5" stop-color="#30363D"/>
      <stop offset="1" stop-color="#8B7CF6" stop-opacity="0.45"/>
    </linearGradient>
    <linearGradient id="grad" x1="0" y1="0" x2="1" y2="0">
      <stop offset="0" stop-color="#7AA2F7"/><stop offset="1" stop-color="#8B7CF6"/>
    </linearGradient>
    <pattern id="grid" width="32" height="32" patternUnits="userSpaceOnUse">
      <path d="M32 0H0V32" fill="none" stroke="#8B949E" stroke-width="0.5" opacity="0.16"/>
    </pattern>
    <radialGradient id="fade" cx="0.2" cy="0.3" r="0.9">
      <stop offset="0" stop-color="#fff"/><stop offset="1" stop-color="#fff" stop-opacity="0"/>
    </radialGradient>
    <mask id="gridmask"><rect width="1200" height="314" fill="url(#fade)"/></mask>
    <radialGradient id="aura" cx="0.5" cy="0.5" r="0.5">
      <stop offset="0" stop-color="#7AA2F7" stop-opacity="0.1"/><stop offset="1" stop-color="#7AA2F7" stop-opacity="0"/>
    </radialGradient>
    <clipPath id="win"><rect x="8" y="8" width="1184" height="298" rx="16"/></clipPath>
    
  </defs>
  <style>
    text { font-family: 'JetBrains Mono','Fira Code','SF Mono',SFMono-Regular,Menlo,Consolas,'Liberation Mono',monospace; }
    .lbl  { fill: #8B949E; font-size: 13px; letter-spacing: 0.5px; }
    .p    { fill: #7AA2F7; font-weight: 700; }
    .c    { fill: #E6EDF3; }
    .k    { fill: #6E7681; }
    .v    { fill: #C9D1D9; }
    .hd   { fill: #6E7681; font-size: 13px; letter-spacing: 1.5px; }
  </style>
  <rect x="8" y="8" width="1184" height="298" rx="16" fill="#0D1117"/>
  <g clip-path="url(#win)">
    <rect x="8" y="8" width="1184" height="298" fill="url(#grid)" mask="url(#gridmask)"/>
    <ellipse cx="240" cy="141" rx="320" ry="157" fill="url(#aura)">
      <animate attributeName="cx" values="200;340;200" dur="16s" repeatCount="indefinite"/>
    </ellipse>
    <rect x="8" y="8" width="1184" height="40" fill="#161B22"/>
    <line x1="8" y1="48" x2="1192" y2="48" stroke="#30363D"/>
  </g>
  <circle cx="34" cy="28" r="5.5" fill="#30363D"/><circle cx="54" cy="28" r="5.5" fill="#30363D"/><circle cx="74" cy="28" r="5.5" fill="#30363D"/>
  <text x="600.0" y="33" text-anchor="middle" class="lbl">~/currently-thinking-about — top</text>
  <rect x="1041.2" y="17" width="134.8" height="22" rx="11" fill="#0D1117" stroke="#30363D"/>
  <circle cx="1056.2" cy="28" r="3" fill="url(#grad)"/>
  <text x="1066.2" y="32" class="lbl" style="font-size:12px">3 threads live</text>
  <text x="48" y="84" class="hd">PID</text><text x="140" y="84" class="hd">STATE</text><text x="290" y="84" class="hd">THREAD</text><text x="900" y="84" class="hd">LOAD</text>
  <line x1="48" y1="98" x2="1152" y2="98" stroke="#30363D"/>
  <g opacity="0"><animate attributeName="opacity" from="0" to="1" begin="0.30s" dur="0.5s" fill="freeze"/><animateTransform attributeName="transform" type="translate" from="0 6" to="0 0" begin="0.30s" dur="0.5s" fill="freeze" calcMode="spline" keySplines="0.2 0.8 0.2 1" keyTimes="0;1"/>
    <text x="48" y="136" font-size="16" class="k">0x01</text>
    <circle cx="146" cy="130" r="4" fill="#7AA2F7"><animate attributeName="opacity" values="1;0.35;1" dur="1.6s" repeatCount="indefinite"/></circle><text x="160" y="136" font-size="16" fill="#7AA2F7">running</text>
    <text x="290" y="136" font-size="18" class="c">agent orchestration at scale</text>
    <rect x="900" y="123" width="250" height="14" rx="3" fill="#161B22" stroke="#30363D"/><rect x="900" y="123" width="150" height="14" rx="3" fill="url(#grad)" opacity="0.85"><animate attributeName="width" values="150;210;175;150" dur="3.2s" repeatCount="indefinite" calcMode="spline" keyTimes="0;0.35;0.7;1" keySplines="0.4 0 0.2 1;0.4 0 0.2 1;0.4 0 0.2 1"/></rect>
  </g>
  <g opacity="0"><animate attributeName="opacity" from="0" to="1" begin="0.48s" dur="0.5s" fill="freeze"/><animateTransform attributeName="transform" type="translate" from="0 6" to="0 0" begin="0.48s" dur="0.5s" fill="freeze" calcMode="spline" keySplines="0.2 0.8 0.2 1" keyTimes="0;1"/>
    <text x="48" y="182" font-size="16" class="k">0x02</text>
    <circle cx="146" cy="176" r="4" fill="#7AA2F7"><animate attributeName="opacity" values="1;0.35;1" dur="2.0s" repeatCount="indefinite"/></circle><text x="160" y="182" font-size="16" fill="#7AA2F7">running</text>
    <text x="290" y="182" font-size="18" class="c">retrieval quality over model size</text>
    <rect x="900" y="169" width="250" height="14" rx="3" fill="#161B22" stroke="#30363D"/><rect x="900" y="169" width="120" height="14" rx="3" fill="url(#grad)" opacity="0.85"><animate attributeName="width" values="120;170;140;120" dur="3.9s" repeatCount="indefinite" calcMode="spline" keyTimes="0;0.35;0.7;1" keySplines="0.4 0 0.2 1;0.4 0 0.2 1;0.4 0 0.2 1"/></rect>
  </g>
  <g opacity="0"><animate attributeName="opacity" from="0" to="1" begin="0.66s" dur="0.5s" fill="freeze"/><animateTransform attributeName="transform" type="translate" from="0 6" to="0 0" begin="0.66s" dur="0.5s" fill="freeze" calcMode="spline" keySplines="0.2 0.8 0.2 1" keyTimes="0;1"/>
    <text x="48" y="228" font-size="16" class="k">0x03</text>
    <circle cx="146" cy="222" r="4" fill="#8B7CF6"><animate attributeName="opacity" values="1;0.35;1" dur="2.4s" repeatCount="indefinite"/></circle><text x="160" y="228" font-size="16" fill="#8B7CF6">indexing</text>
    <text x="290" y="228" font-size="18" class="c">observability for nondeterministic systems</text>
    <rect x="900" y="215" width="250" height="14" rx="3" fill="#161B22" stroke="#30363D"/><rect x="900" y="215" width="60" height="14" rx="3" fill="url(#grad)" opacity="0.85"><animate attributeName="width" values="60;110;80;60" dur="4.6s" repeatCount="indefinite" calcMode="spline" keyTimes="0;0.35;0.7;1" keySplines="0.4 0 0.2 1;0.4 0 0.2 1;0.4 0 0.2 1"/></rect>
  </g>
  <g opacity="0"><animate attributeName="opacity" from="0" to="1" begin="0.84s" dur="0.5s" fill="freeze"/><animateTransform attributeName="transform" type="translate" from="0 6" to="0 0" begin="0.84s" dur="0.5s" fill="freeze" calcMode="spline" keySplines="0.2 0.8 0.2 1" keyTimes="0;1"/>
    <text x="48" y="274" font-size="16" class="k">0x04</text>
    <circle cx="146" cy="268" r="4" fill="#6E7681"></circle><text x="160" y="274" font-size="16" fill="#6E7681">killed</text>
    <text x="290" y="274" font-size="18" class="k">yaml</text><line x1="288" y1="268" x2="335.2" y2="268" stroke="#6E7681" stroke-width="1.5"/>
    <text x="900" y="274" font-size="18" class="k">—</text>
  </g>
  <path d="M24.0,8.5 H1176.0 A15.5,15.5 0 0 1 1191.5,24.0 V290.0 A15.5,15.5 0 0 1 1176.0,305.5 H24.0 A15.5,15.5 0 0 1 8.5,290.0 V24.0 A15.5,15.5 0 0 1 24.0,8.5 Z" fill="none" stroke="url(#frame)" stroke-width="1"/>
</svg>